<?xml version="1.0" standalone="no"?>
<!DOCTYPE svg PUBLIC "-//W3C//DTD SVG 20010904//EN"
 "http://www.w3.org/TR/2001/REC-SVG-20010904/DTD/svg10.dtd">
<svg version="1.0" xmlns="http://www.w3.org/2000/svg"
 width="512.000000pt" height="512.000000pt" viewBox="0 0 512.000000 512.000000"
 preserveAspectRatio="xMidYMid meet">
<metadata>
Created by potrace 1.14, written by Peter Selinger 2001-2017
</metadata>
<g transform="translate(0.000000,512.000000) scale(0.100000,-0.100000)"
fill="#000000" stroke="none">
<path d="M1900 5101 c-92 -30 -142 -61 -216 -135 -119 -120 -154 -224 -154
-463 l0 -142 -552 -3 c-538 -4 -555 -4 -619 -26 -125 -42 -240 -137 -301 -249
-59 -107 -58 -94 -58 -975 l0 -808 1155 0 1155 0 0 255 0 255 250 0 250 0 0
-255 0 -255 1155 0 1155 0 0 808 c0 881 1 868 -58 975 -61 112 -176 207 -301
249 -64 22 -81 22 -618 26 l-553 3 0 142 c0 83 -6 169 -14 208 -40 185 -183
339 -365 393 -47 14 -134 16 -655 15 -548 0 -606 -2 -656 -18z m1170 -621 l0
-120 -510 0 -510 0 0 120 0 120 510 0 510 0 0 -120z"/>
<path d="M250 1263 c0 -864 0 -865 60 -983 60 -119 181 -221 308 -260 63 -20
97 -20 1941 -20 2053 0 1915 -4 2033 56 75 38 170 134 212 214 66 125 66 118
66 993 l0 787 -1030 0 -1030 0 0 -255 0 -255 -250 0 -250 0 0 255 0 255 -1030
0 -1030 0 0 -787z"/>
</g>
</svg>
